HIERARCHY
ROOT hip
{
	OFFSET 0.000000 0.000000 0.000000 
	CHANNELS 6 Xposition Yposition Zposition Xrotation Zrotation Yrotation
	JOINT abdomen
	{
		OFFSET 0.000000 3.402643 0.000000 
		CHANNELS 3 Xrotation Zrotation Yrotation
		JOINT chest
		{
			OFFSET 0.000000 8.438565 -0.680529 
			CHANNELS 3 Xrotation Zrotation Yrotation
			JOINT neck
			{
				OFFSET 0.000000 10.207942 -0.272212 
				CHANNELS 3 Xrotation Zrotation Yrotation
				JOINT head
				{
					OFFSET 0.000000 3.130431 0.000000 
					CHANNELS 3 Xrotation Zrotation Yrotation
					End Site
					{
						OFFSET 0.000000 3.130435 0.000000 
					}
				}
			}
			JOINT lCollar
			{
				OFFSET 3.470700 6.669187 -0.816635 
				CHANNELS 3 Yrotation Zrotation Xrotation
				JOINT lShldr
				{
					OFFSET 3.198488 0.000000 0.000000 
					CHANNELS 3 Zrotation Yrotation Xrotation
					JOINT lForeArm
					{
						OFFSET 10.139888 0.000000 0.000000 
						CHANNELS 3 Yrotation Zrotation Xrotation
						JOINT lHand
						{
							OFFSET 8.370511 0.000000 0.000000 
							CHANNELS 3 Zrotation Yrotation Xrotation
							End Site
							{
								OFFSET 4.083176 0.000000 0.000000 
							}
						}
					}
				}
			}
			JOINT rCollar
			{
				OFFSET -3.470700 6.669187 -0.816635 
				CHANNELS 3 Yrotation Zrotation Xrotation
				JOINT rShldr
				{
					OFFSET -3.198488 0.000000 0.000000 
					CHANNELS 3 Zrotation Yrotation Xrotation
					JOINT rForeArm
					{
						OFFSET -10.139888 0.000000 0.000000 
						CHANNELS 3 Yrotation Zrotation Xrotation
						JOINT rHand
						{
							OFFSET -8.370511 0.000000 0.000000 
							CHANNELS 3 Zrotation Yrotation Xrotation
							End Site
							{
								OFFSET -4.083176 0.000000 0.000000 
							}
						}
					}
				}
			}
		}
	}
	JOINT lThigh
	{
		OFFSET 5.308129 -1.633274 1.361059 
		CHANNELS 3 Xrotation Zrotation Yrotation
		JOINT lShin
		{
			OFFSET -2.041588 -20.007561 0.000000 
			CHANNELS 3 Xrotation Zrotation Yrotation
			JOINT lFoot
			{
				OFFSET 0.000000 -19.190928 -1.224953 
				CHANNELS 3 Xrotation Yrotation Zrotation
				End Site
				{
					OFFSET 0.000000 -2.449906 4.627600 
				}
			}
		}
	}
	JOINT rThigh
	{
		OFFSET -5.308129 -1.633274 1.361059 
		CHANNELS 3 Xrotation Zrotation Yrotation
		JOINT rShin
		{
			OFFSET 2.041588 -20.007561 0.000000 
			CHANNELS 3 Xrotation Zrotation Yrotation
			JOINT rFoot
			{
				OFFSET 0.000000 -19.190928 -1.224953 
				CHANNELS 3 Xrotation Yrotation Zrotation
				End Site
				{
					OFFSET 0.000000 -2.449906 4.627600 
				}
			}
		}
	}
}
MOTION
Frames: 15
Frame Time: 0.064668
0.000000 45.419613 0.000000 11.260500 0.651280 9.104380 0.625171 5.424475 -3.481926 0.267930 2.324775 -1.492254 24.323400 1.724220 -5.972970 16.304100 6.073360 -3.197700 2.000000 -2.000000 0.020256 91.709198 -177.373001 4.136690 42.119598 -0.316258 0.091750 0.045660 0.020256 -143.406006 -2.000000 2.000000 0.020256 -103.200996 170.283997 -3.842470 -37.344101 0.323539 0.082935 -0.054683 0.020256 -140.330002 -14.478857 -2.634971 -4.695556 15.346912 1.998759 1.529145 -7.066529 9.499258 2.448125 -18.822567 0.901884 0.974613 27.177183 -2.297655 -2.246834 -20.059673 -8.181624 -4.088797 
-0.100879 45.421928 -0.089354 11.933900 0.391737 10.571100 1.159830 5.377701 -2.994663 0.497070 2.304729 -1.283427 27.425400 -0.642368 -3.994910 17.585100 5.479350 -2.113150 2.000000 -2.000000 0.000000 91.924202 -176.244003 5.750520 43.516102 -0.313993 0.094194 0.045697 -0.018446 -143.522995 -2.000000 2.000000 0.000000 -103.845001 168.311996 -3.534780 -38.252300 0.322211 0.084648 -0.054703 0.009866 -140.447006 -15.320885 -2.557299 -5.095196 14.876604 1.904299 1.528527 -6.694304 8.637907 2.271312 -19.406897 0.956404 1.085965 26.986513 -2.250193 -2.279204 -20.780184 -9.017354 -4.629251 
-0.193559 45.411144 -0.087467 12.207100 0.200441 11.947700 1.491560 5.258883 -2.541369 0.639240 2.253807 -1.089158 29.028200 -2.371030 -3.328070 18.228800 4.932420 -1.677550 2.000000 -2.000000 0.000000 92.178497 -176.266998 6.951650 45.225101 -0.311142 0.097109 0.045912 -0.020211 -144.158005 -2.000000 2.000000 0.000000 -104.049004 166.720993 -3.101120 -38.203499 0.322283 0.084556 -0.054718 0.010112 -140.535004 -15.812455 -2.504365 -5.284403 14.780993 1.885231 1.538188 -6.469892 7.578801 2.013163 -19.643101 0.958007 0.678321 27.134626 -2.244519 -2.294321 -21.401985 -9.462574 -4.991103 
-0.274892 45.390316 -0.025096 12.187500 -0.133637 13.076600 1.652139 5.178145 -2.117431 0.708060 2.219205 -0.907471 29.540501 -2.812540 -2.849380 18.415199 4.937420 -1.424810 2.000000 -2.000000 0.000000 92.266602 -176.014999 7.958070 46.035599 -0.309759 0.098461 0.046602 -0.025056 -145.906006 -2.000000 2.000000 0.000000 -104.341003 165.238998 -2.003700 -37.510201 0.323298 0.083250 -0.054883 0.012458 -141.375000 -16.156801 -2.235676 -5.302310 15.131615 1.913608 1.533679 -6.610094 6.450689 1.816487 -19.540148 1.182061 0.196782 27.205849 -2.224443 -2.317570 -21.960985 -9.743345 -5.261045 
-0.299830 45.371555 0.091578 12.178000 -0.362743 13.867000 1.739151 4.881282 -1.583757 0.745350 2.091978 -0.678753 29.706699 -3.228100 -2.576870 18.392900 4.824380 -1.250400 2.000000 -2.000000 0.000000 -87.694000 -4.041110 -170.996994 46.865700 -0.308324 0.099825 0.047395 -0.029637 -147.565994 -2.000000 2.000000 0.000000 -104.096001 164.302002 -2.050210 -37.246498 0.323680 0.082750 -0.054933 0.013085 -141.598999 -16.622828 -2.076509 -4.814837 15.983875 1.967117 1.599477 -7.143577 5.180633 1.574718 -19.354433 1.293497 -0.274879 27.204706 -2.229246 -2.299222 -22.273769 -9.696594 -5.335310 
-0.273768 45.403820 0.154622 12.559100 -0.486130 14.823300 1.847440 4.714500 -1.199237 0.791760 2.020500 -0.513959 29.994600 -3.752610 -2.024670 18.519100 4.774090 -0.929646 2.000000 -2.000000 0.000000 -88.016098 -4.137680 -170.537994 48.672298 -0.305132 0.102722 0.048233 -0.033792 -149.080002 -2.000000 2.000000 0.000000 -104.233002 163.539993 -2.155760 -37.656601 0.323085 0.083527 -0.055960 0.022325 -144.919998 -17.499571 -2.106108 -3.798003 16.696566 1.950723 1.660087 -7.331631 3.417300 1.242424 -19.460896 1.002803 -1.222581 26.891226 -2.220506 -2.284178 -22.299374 -9.787478 -5.429572 
-0.183448 45.436333 0.075446 13.487800 -0.835677 16.684200 1.585151 4.891866 -1.224196 0.679350 2.096514 -0.524656 30.507200 -5.235920 -1.188800 18.706499 4.401040 -0.385464 2.000000 -2.000000 0.000000 -88.542801 -4.222250 -169.121002 51.709499 -0.299566 0.107361 0.050832 -0.044162 -152.897995 -2.000000 2.000000 0.000000 -105.081001 162.326004 -3.480920 -38.349998 0.322067 0.084831 -0.058371 0.035474 -149.695007 -19.834698 -1.872358 -0.899887 18.416159 1.922091 1.823309 -8.397394 -0.130941 0.508457 -20.289585 0.479844 -2.607097 26.649946 -2.184057 -2.300399 -22.535725 -10.304049 -5.871808 
0.078075 45.506104 -0.032454 14.333300 -1.788290 18.488400 1.895879 5.118232 -1.050311 0.812520 2.193528 -0.450134 31.034100 -6.193610 -0.255449 19.063801 4.166590 0.206553 2.000000 -2.000000 0.000000 -88.159897 -4.954940 -165.037994 55.889198 -0.291520 0.113249 0.066846 -0.061955 -159.636993 -2.000000 2.000000 0.000000 -106.533997 159.343994 -4.987400 -37.998402 0.322585 0.084171 -0.071429 0.057491 -154.225998 -23.312632 -0.813567 0.339282 22.459034 2.025060 2.073783 -10.615861 -2.092926 -0.017673 -20.912458 0.487980 -3.527620 25.780958 -2.130162 -2.267710 -22.490702 -11.718218 -6.723140 
0.584159 45.636799 0.024433 14.495100 -2.373240 20.138300 2.505089 5.156088 -0.607281 1.073610 2.209752 -0.260263 31.110901 -6.594740 0.701401 19.052999 4.119640 0.788909 2.000000 -2.000000 0.000000 -87.346901 -6.147240 -161.147995 59.502499 -0.284233 0.117855 0.072367 -0.073770 -164.294998 -2.000000 2.000000 0.000000 -107.281998 155.522003 -6.195040 -37.285500 0.323624 0.082824 -0.074528 0.056722 -157.625000 -24.726908 0.776598 -0.856941 22.185692 2.089887 2.013192 -8.675073 5.035002 1.693952 -20.332146 0.277478 -3.992960 24.571522 -2.136143 -2.187115 -22.989141 -13.002648 -7.621269 
1.365471 45.690639 0.209466 14.780400 -3.267350 22.780800 2.708019 4.713037 -0.461054 1.160580 2.019873 -0.197595 31.106701 -6.618890 1.684480 19.016100 4.224240 1.350940 2.000000 -2.000000 0.000000 -86.574402 -6.827450 -159.643005 62.568901 -0.277833 0.121397 0.074089 -0.086770 -165.602997 -2.000000 2.000000 0.000000 -107.199997 152.222000 -6.118600 -37.998402 0.322585 0.084171 -0.077329 0.063641 -160.291000 -25.299337 2.754971 -3.172560 15.959321 2.001242 1.584848 -3.337196 12.976962 2.401585 -19.826139 -0.178273 -5.108716 23.948029 -2.169295 -2.118587 -23.539104 -14.534296 -8.704287 
2.487393 45.515610 0.454026 14.602700 -4.782540 26.674999 2.981789 4.619804 -0.330589 1.277910 1.979916 -0.141681 30.790300 -6.135830 1.979990 18.904100 4.472180 1.475690 2.000000 -2.000000 0.000000 -86.378799 -7.558590 -159.065002 65.391197 -0.271781 0.124351 0.074312 -0.087177 -165.768997 -2.000000 2.000000 0.000000 -108.309998 150.259995 -5.601250 -39.893002 0.319744 0.087687 -0.079525 0.068500 -162.195007 -26.185946 4.788732 -9.287214 9.298122 1.798859 1.058200 -3.216541 21.156288 3.283987 -19.612391 -0.448128 -6.936712 25.064379 -2.214717 -2.183081 -25.341461 -16.235008 -10.363021 
3.995219 45.178154 0.701698 13.568700 -6.618370 31.618900 3.149299 4.901274 -0.197838 1.349700 2.100546 -0.084788 30.572599 -5.127340 1.554540 18.772699 4.720820 1.217750 2.000000 -2.000000 0.000000 -86.183197 -7.518760 -158.723999 68.291496 -0.265419 0.127071 0.075165 -0.088706 -166.393997 -2.000000 2.000000 0.000000 -109.907997 148.177994 -6.260130 -40.654701 0.318569 0.089074 -0.082094 0.073697 -164.264999 -27.176697 5.969518 -12.468190 5.220378 1.813382 0.623069 -2.178153 26.569174 2.688580 -18.830282 -0.657657 -9.803754 27.177843 -2.304277 -2.277945 -28.099644 -17.093079 -12.002996 
5.973294 44.738159 0.967546 11.997700 -8.141030 37.025700 2.863000 5.399457 0.226001 1.227000 2.314053 0.096857 30.501400 -3.869210 0.458696 18.686399 4.798480 0.663822 2.000000 -2.000000 0.000000 -85.938301 -6.687340 -158.119995 70.498596 -0.260490 0.128924 0.075843 -0.089893 -166.882996 -2.000000 2.000000 0.000000 69.819000 32.971199 170.774002 -40.957401 0.318097 0.089621 -0.085445 0.089608 -166.764999 -28.168608 5.361267 -8.635491 4.508542 1.864117 0.552106 4.114873 20.590460 -0.399700 -17.579184 -1.231314 -12.462826 30.532028 -2.451902 -2.405921 -30.329325 -18.235519 -13.626851 
8.209757 44.458527 1.188325 11.323300 -8.697250 44.134102 2.759540 5.946276 1.182450 1.182660 2.548404 0.506764 29.609400 -0.735995 -1.947930 18.268299 5.338720 -0.702130 2.000000 -2.000000 0.000000 -86.347801 -6.002560 -157.584000 70.889198 -0.259610 0.129232 0.068486 -0.093933 -168.561996 -2.000000 2.000000 0.000000 71.261101 33.229500 164.720001 -41.328499 0.317514 0.090288 -0.086798 0.091922 -167.722000 -30.186588 2.323878 -3.382478 7.401865 1.365175 1.051250 10.345480 5.735175 -0.427890 -17.958858 -4.104737 -15.823701 37.706661 -2.435271 -2.783023 -31.497110 -20.246582 -15.317163 
10.391972 44.459423 1.522891 10.837300 -8.970680 51.854301 3.446240 6.308120 2.868684 1.476960 2.703480 1.229436 28.007000 2.818790 -5.187150 17.520300 6.003580 -2.531070 2.000000 -2.000000 0.000000 -86.730499 -3.391300 -160.246002 70.713402 -0.260006 0.129094 0.070683 -0.087632 -170.026993 -2.000000 2.000000 0.000000 73.751999 34.749199 162.076996 -38.408600 0.321980 0.084940 -0.081519 0.089252 -170.720001 -30.468876 -1.507155 -0.571041 9.711545 1.274455 1.345450 9.103605 -3.271181 0.082686 -19.193851 -6.871475 -17.033049 45.974152 -2.211621 -3.210044 -31.183779 -24.874662 -17.629780 
